<?xml version="1.0" encoding="UTF-8" standalone="no"?>
<!DOCTYPE svg PUBLIC "-//W3C//DTD SVG 1.1//EN"
 "http://www.w3.org/Graphics/SVG/1.1/DTD/svg11.dtd">
<!-- Generated by graphviz version 2.26.3 (20100126.1600)
 -->
<!-- Title: controllers_diagram Pages: 1 -->
<svg width="469pt" height="377pt"
 viewBox="0.00 0.00 469.00 377.00" xmlns="http://www.w3.org/2000/svg" xmlns:xlink="http://www.w3.org/1999/xlink">
<g id="graph1" class="graph" transform="scale(1 1) rotate(0) translate(4 373)">
<title>controllers_diagram</title>
<polygon fill="none" stroke="none" points="-4,5 -4,-373 466,-373 466,5 -4,5"/>
<!-- _diagram_info -->
<g id="node1" class="node"><title>_diagram_info</title>
<text text-anchor="start" x="218" y="-78.3" font-family="Times Roman,serif" font-size="13.00">Controllers diagram</text>
<text text-anchor="start" x="218" y="-61.3" font-family="Times Roman,serif" font-size="13.00">Date: Jun 29 2016 &#45; 08:40</text>
<text text-anchor="start" x="218" y="-44.3" font-family="Times Roman,serif" font-size="13.00">Migration version: 20160628133247</text>
<text text-anchor="start" x="218" y="-27.3" font-family="Times Roman,serif" font-size="13.00">Generated by RailRoady 1.5.1</text>
<text text-anchor="start" x="218" y="-10.3" font-family="Times Roman,serif" font-size="13.00">http://railroady.prestonlee.com</text>
</g>
<!-- ApplicationController -->
<g id="node2" class="node"><title>ApplicationController</title>
<polyline fill="none" stroke="black" points="222,-134.5 440,-134.5 "/>
<path fill="none" stroke="black" d="M440,-134.5C446,-134.5 452,-140.5 452,-146.5"/>
<polyline fill="none" stroke="black" points="452,-146.5 452,-224.5 "/>
<path fill="none" stroke="black" d="M452,-224.5C452,-230.5 446,-236.5 440,-236.5"/>
<polyline fill="none" stroke="black" points="440,-236.5 222,-236.5 "/>
<path fill="none" stroke="black" d="M222,-236.5C216,-236.5 210,-230.5 210,-224.5"/>
<polyline fill="none" stroke="black" points="210,-224.5 210,-146.5 "/>
<path fill="none" stroke="black" d="M210,-146.5C210,-140.5 216,-134.5 222,-134.5"/>
<text text-anchor="middle" x="331" y="-219.9" font-family="Times Roman,serif" font-size="14.00">ApplicationController</text>
<polyline fill="none" stroke="black" points="210,-210.5 452,-210.5 "/>
<polyline fill="none" stroke="black" points="210,-186.5 452,-186.5 "/>
<text text-anchor="start" x="218" y="-169.9" font-family="Times Roman,serif" font-size="14.00">configure_permitted_parameters</text>
<polyline fill="none" stroke="black" points="210,-160.5 452,-160.5 "/>
<text text-anchor="start" x="218" y="-143.9" font-family="Times Roman,serif" font-size="14.00">_layout</text>
</g>
<!-- TransactionsController -->
<g id="node3" class="node"><title>TransactionsController</title>
<polyline fill="none" stroke="black" points="13,-1.5 160,-1.5 "/>
<path fill="none" stroke="black" d="M160,-1.5C166,-1.5 172,-7.5 172,-13.5"/>
<polyline fill="none" stroke="black" points="172,-13.5 172,-217.5 "/>
<path fill="none" stroke="black" d="M172,-217.5C172,-223.5 166,-229.5 160,-229.5"/>
<polyline fill="none" stroke="black" points="160,-229.5 13,-229.5 "/>
<path fill="none" stroke="black" d="M13,-229.5C7,-229.5 1,-223.5 1,-217.5"/>
<polyline fill="none" stroke="black" points="1,-217.5 1,-13.5 "/>
<path fill="none" stroke="black" d="M1,-13.5C1,-7.5 7,-1.5 13,-1.5"/>
<text text-anchor="middle" x="86.5" y="-212.9" font-family="Times Roman,serif" font-size="14.00">TransactionsController</text>
<polyline fill="none" stroke="black" points="1,-203.5 172,-203.5 "/>
<text text-anchor="start" x="9" y="-186.9" font-family="Times Roman,serif" font-size="14.00">create</text>
<text text-anchor="start" x="9" y="-168.9" font-family="Times Roman,serif" font-size="14.00">create_top_up</text>
<text text-anchor="start" x="9" y="-150.9" font-family="Times Roman,serif" font-size="14.00">index</text>
<text text-anchor="start" x="9" y="-132.9" font-family="Times Roman,serif" font-size="14.00">new</text>
<text text-anchor="start" x="9" y="-114.9" font-family="Times Roman,serif" font-size="14.00">new_top_up</text>
<text text-anchor="start" x="9" y="-96.9" font-family="Times Roman,serif" font-size="14.00">show</text>
<polyline fill="none" stroke="black" points="1,-87.5 172,-87.5 "/>
<polyline fill="none" stroke="black" points="1,-63.5 172,-63.5 "/>
<text text-anchor="start" x="9" y="-46.9" font-family="Times Roman,serif" font-size="14.00">_layout</text>
<text text-anchor="start" x="9" y="-28.9" font-family="Times Roman,serif" font-size="14.00">set_user</text>
<text text-anchor="start" x="9" y="-10.9" font-family="Times Roman,serif" font-size="14.00">transaction_params</text>
</g>
<!-- UsersController -->
<g id="node4" class="node"><title>UsersController</title>
<polyline fill="none" stroke="black" points="260,-267.5 360,-267.5 "/>
<path fill="none" stroke="black" d="M360,-267.5C366,-267.5 372,-273.5 372,-279.5"/>
<polyline fill="none" stroke="black" points="372,-279.5 372,-355.5 "/>
<path fill="none" stroke="black" d="M372,-355.5C372,-361.5 366,-367.5 360,-367.5"/>
<polyline fill="none" stroke="black" points="360,-367.5 260,-367.5 "/>
<path fill="none" stroke="black" d="M260,-367.5C254,-367.5 248,-361.5 248,-355.5"/>
<polyline fill="none" stroke="black" points="248,-355.5 248,-279.5 "/>
<path fill="none" stroke="black" d="M248,-279.5C248,-273.5 254,-267.5 260,-267.5"/>
<text text-anchor="middle" x="310" y="-350.9" font-family="Times Roman,serif" font-size="14.00">UsersController</text>
<polyline fill="none" stroke="black" points="248,-341.5 372,-341.5 "/>
<polyline fill="none" stroke="black" points="248,-317.5 372,-317.5 "/>
<polyline fill="none" stroke="black" points="248,-293.5 372,-293.5 "/>
<text text-anchor="start" x="256" y="-276.9" font-family="Times Roman,serif" font-size="14.00">_layout</text>
</g>
</g>
</svg>
