<?xml version="1.0" encoding="UTF-8" standalone="no"?>
<!DOCTYPE svg PUBLIC "-//W3C//DTD SVG 1.1//EN"
 "http://www.w3.org/Graphics/SVG/1.1/DTD/svg11.dtd">
<!-- Generated by graphviz version 2.26.3 (20100126.1600)
 -->
<!-- Title: models_diagram Pages: 1 -->
<svg width="530pt" height="602pt"
 viewBox="0.00 0.00 530.00 602.00" xmlns="http://www.w3.org/2000/svg" xmlns:xlink="http://www.w3.org/1999/xlink">
<g id="graph1" class="graph" transform="scale(1 1) rotate(0) translate(4 598)">
<title>models_diagram</title>
<polygon fill="none" stroke="none" points="-4,5 -4,-598 527,-598 527,5 -4,5"/>
<!-- _diagram_info -->
<g id="node1" class="node"><title>_diagram_info</title>
<text text-anchor="start" x="8" y="-471.8" font-family="Times Roman,serif" font-size="13.00">Models diagram</text>
<text text-anchor="start" x="8" y="-454.8" font-family="Times Roman,serif" font-size="13.00">Date: Jun 29 2016 &#45; 08:40</text>
<text text-anchor="start" x="8" y="-437.8" font-family="Times Roman,serif" font-size="13.00">Migration version: 20160628133247</text>
<text text-anchor="start" x="8" y="-420.8" font-family="Times Roman,serif" font-size="13.00">Generated by RailRoady 1.5.1</text>
<text text-anchor="start" x="8" y="-403.8" font-family="Times Roman,serif" font-size="13.00">http://railroady.prestonlee.com</text>
</g>
<!-- User -->
<g id="node2" class="node"><title>User</title>
<polyline fill="none" stroke="black" points="280,-289 510,-289 "/>
<path fill="none" stroke="black" d="M510,-289C516,-289 522,-295 522,-301"/>
<polyline fill="none" stroke="black" points="522,-301 522,-581 "/>
<path fill="none" stroke="black" d="M522,-581C522,-587 516,-593 510,-593"/>
<polyline fill="none" stroke="black" points="510,-593 280,-593 "/>
<path fill="none" stroke="black" d="M280,-593C274,-593 268,-587 268,-581"/>
<polyline fill="none" stroke="black" points="268,-581 268,-301 "/>
<path fill="none" stroke="black" d="M268,-301C268,-295 274,-289 280,-289"/>
<text text-anchor="middle" x="395" y="-576.4" font-family="Times Roman,serif" font-size="14.00">User</text>
<polyline fill="none" stroke="black" points="268,-567 522,-567 "/>
<text text-anchor="start" x="276" y="-550.4" font-family="Times Roman,serif" font-size="14.00">id :INTEGER</text>
<text text-anchor="start" x="276" y="-532.4" font-family="Times Roman,serif" font-size="14.00">email :varchar</text>
<text text-anchor="start" x="276" y="-514.4" font-family="Times Roman,serif" font-size="14.00">encrypted_password :varchar</text>
<text text-anchor="start" x="276" y="-496.4" font-family="Times Roman,serif" font-size="14.00">reset_password_token :varchar</text>
<text text-anchor="start" x="276" y="-478.4" font-family="Times Roman,serif" font-size="14.00">reset_password_sent_at :datetime</text>
<text text-anchor="start" x="276" y="-460.4" font-family="Times Roman,serif" font-size="14.00">remember_created_at :datetime</text>
<text text-anchor="start" x="276" y="-442.4" font-family="Times Roman,serif" font-size="14.00">sign_in_count :integer</text>
<text text-anchor="start" x="276" y="-424.4" font-family="Times Roman,serif" font-size="14.00">current_sign_in_at :datetime</text>
<text text-anchor="start" x="276" y="-406.4" font-family="Times Roman,serif" font-size="14.00">last_sign_in_at :datetime</text>
<text text-anchor="start" x="276" y="-388.4" font-family="Times Roman,serif" font-size="14.00">current_sign_in_ip :varchar</text>
<text text-anchor="start" x="276" y="-370.4" font-family="Times Roman,serif" font-size="14.00">last_sign_in_ip :varchar</text>
<text text-anchor="start" x="276" y="-352.4" font-family="Times Roman,serif" font-size="14.00">created_at :datetime</text>
<text text-anchor="start" x="276" y="-334.4" font-family="Times Roman,serif" font-size="14.00">updated_at :datetime</text>
<text text-anchor="start" x="276" y="-316.4" font-family="Times Roman,serif" font-size="14.00">mobile :varchar</text>
<text text-anchor="start" x="276" y="-298.4" font-family="Times Roman,serif" font-size="14.00">name :varchar</text>
</g>
<!-- Transaction -->
<g id="node3" class="node"><title>Transaction</title>
<polyline fill="none" stroke="black" points="307.5,-1 480.5,-1 "/>
<path fill="none" stroke="black" d="M480.5,-1C486.5,-1 492.5,-7 492.5,-13"/>
<polyline fill="none" stroke="black" points="492.5,-13 492.5,-221 "/>
<path fill="none" stroke="black" d="M492.5,-221C492.5,-227 486.5,-233 480.5,-233"/>
<polyline fill="none" stroke="black" points="480.5,-233 307.5,-233 "/>
<path fill="none" stroke="black" d="M307.5,-233C301.5,-233 295.5,-227 295.5,-221"/>
<polyline fill="none" stroke="black" points="295.5,-221 295.5,-13 "/>
<path fill="none" stroke="black" d="M295.5,-13C295.5,-7 301.5,-1 307.5,-1"/>
<text text-anchor="middle" x="394" y="-216.4" font-family="Times Roman,serif" font-size="14.00">Transaction</text>
<polyline fill="none" stroke="black" points="295.5,-207 492.5,-207 "/>
<text text-anchor="start" x="303.5" y="-190.4" font-family="Times Roman,serif" font-size="14.00">id :INTEGER</text>
<text text-anchor="start" x="303.5" y="-172.4" font-family="Times Roman,serif" font-size="14.00">amount :decimal</text>
<text text-anchor="start" x="303.5" y="-154.4" font-family="Times Roman,serif" font-size="14.00">happened_on :date</text>
<text text-anchor="start" x="303.5" y="-136.4" font-family="Times Roman,serif" font-size="14.00">code :varchar</text>
<text text-anchor="start" x="303.5" y="-118.4" font-family="Times Roman,serif" font-size="14.00">created_at :datetime</text>
<text text-anchor="start" x="303.5" y="-100.4" font-family="Times Roman,serif" font-size="14.00">updated_at :datetime</text>
<text text-anchor="start" x="303.5" y="-82.4" font-family="Times Roman,serif" font-size="14.00">sender_id :integer</text>
<text text-anchor="start" x="303.5" y="-64.4" font-family="Times Roman,serif" font-size="14.00">recipient_id :integer</text>
<text text-anchor="start" x="303.5" y="-46.4" font-family="Times Roman,serif" font-size="14.00">transaction_type :integer</text>
<text text-anchor="start" x="303.5" y="-28.4" font-family="Times Roman,serif" font-size="14.00">sender_balance :decimal</text>
<text text-anchor="start" x="303.5" y="-10.4" font-family="Times Roman,serif" font-size="14.00">recipient_balance :decimal</text>
</g>
<!-- User&#45;&gt;Transaction -->
<g id="edge2" class="edge"><title>User&#45;&gt;Transaction</title>
<path fill="none" stroke="#f9d93b" d="M344.837,-280.658C344.753,-270.995 345.412,-261.388 347,-252 347.511,-248.978 348.082,-245.933 348.707,-242.874"/>
<ellipse fill="none" stroke="#f9d93b" cx="344.96" cy="-284.788" rx="4" ry="4"/>
<polygon fill="#f9d93b" stroke="#f9d93b" points="348.715,-242.837 355.266,-234.043 349.793,-237.955 350.872,-233.072 350.872,-233.072 350.872,-233.072 349.793,-237.955 346.478,-232.102 348.715,-242.837 348.715,-242.837"/>
<text text-anchor="middle" x="384" y="-257.4" font-family="Times Roman,serif" font-size="14.00">moneys_in</text>
</g>
<!-- User&#45;&gt;Transaction -->
<g id="edge4" class="edge"><title>User&#45;&gt;Transaction</title>
<path fill="none" stroke="#023a98" d="M422.309,-280.777C422.331,-271.049 421.931,-261.399 421,-252 420.713,-249.101 420.392,-246.172 420.041,-243.223"/>
<ellipse fill="none" stroke="#023a98" cx="422.249" cy="-284.965" rx="4" ry="4"/>
<polygon fill="#023a98" stroke="#023a98" points="420.019,-243.048 423.201,-232.554 419.378,-238.089 418.738,-233.13 418.738,-233.13 418.738,-233.13 419.378,-238.089 414.275,-233.706 420.019,-243.048 420.019,-243.048"/>
<text text-anchor="middle" x="464.5" y="-257.4" font-family="Times Roman,serif" font-size="14.00">moneys_out</text>
</g>
</g>
</svg>
